name p15_grf_mean_speed_1.8
datacolumns 13
datarows 46
range 0.0000000000 0.4500000000
endheader
time	grf_x_l_mean	grf_x_l_var	grf_y_l_mean	grf_y_l_var	grf_z_l_mean	grf_z_l_var	grf_x_r_mean	grf_x_r_var	grf_y_r_mean	grf_y_r_var	grf_z_r_mean	grf_z_r_var
0.0000000000	174.6288808098	1.0000000000	813.0740106244	1.0000000000	0.0000000000	0.0000000000	8.2978638397	1.0000000000	12.0708528686	1.0000000000	0.0000000000	0.0000000000
0.0100000000	181.6997259054	1.0000000000	778.7387907688	1.0000000000	0.0000000000	0.0000000000	9.8710978145	1.0000000000	63.2908902339	1.0000000000	0.0000000000	0.0000000000
0.0200000000	184.9278196193	1.0000000000	728.0812653709	1.0000000000	0.0000000000	0.0000000000	9.2321719890	1.0000000000	146.4875893695	1.0000000000	0.0000000000	0.0000000000
0.0300000000	182.7600999121	1.0000000000	661.9284540829	1.0000000000	0.0000000000	0.0000000000	3.3980614387	1.0000000000	262.1964593932	1.0000000000	0.0000000000	0.0000000000
0.0400000000	173.7953894501	1.0000000000	582.8918486953	1.0000000000	0.0000000000	0.0000000000	-12.8212999148	1.0000000000	399.9327751398	1.0000000000	0.0000000000	0.0000000000
0.0500000000	156.9280326299	1.0000000000	494.8253503994	1.0000000000	0.0000000000	0.0000000000	-42.2580944932	1.0000000000	538.3369721557	1.0000000000	0.0000000000	0.0000000000
0.0600000000	132.1538539634	1.0000000000	402.2639306681	1.0000000000	0.0000000000	0.0000000000	-78.0707120790	1.0000000000	655.1165809856	1.0000000000	0.0000000000	0.0000000000
0.0700000000	103.1304636113	1.0000000000	311.4127963409	1.0000000000	0.0000000000	0.0000000000	-110.0084457001	1.0000000000	736.8136165082	1.0000000000	0.0000000000	0.0000000000
0.0800000000	74.5704355784	1.0000000000	229.1823041271	1.0000000000	0.0000000000	0.0000000000	-134.8352924723	1.0000000000	780.7274890405	1.0000000000	0.0000000000	0.0000000000
0.0900000000	48.2674157513	1.0000000000	159.7624782171	1.0000000000	0.0000000000	0.0000000000	-152.2956671440	1.0000000000	795.0537550886	1.0000000000	0.0000000000	0.0000000000
0.1000000000	26.8400119227	1.0000000000	104.4090875655	1.0000000000	0.0000000000	0.0000000000	-162.7143280329	1.0000000000	793.7820412312	1.0000000000	0.0000000000	0.0000000000
0.1100000000	11.9062250961	1.0000000000	62.6960892356	1.0000000000	0.0000000000	0.0000000000	-165.9809544050	1.0000000000	788.7735119123	1.0000000000	0.0000000000	0.0000000000
0.1200000000	2.5270977259	1.0000000000	33.3110059214	1.0000000000	0.0000000000	0.0000000000	-162.8987649469	1.0000000000	786.6297167235	1.0000000000	0.0000000000	0.0000000000
0.1300000000	-2.3583546398	1.0000000000	14.0514769835	1.0000000000	0.0000000000	0.0000000000	-156.2885934562	1.0000000000	789.0984894623	1.0000000000	0.0000000000	0.0000000000
0.1400000000	-4.0383131388	1.0000000000	2.2005953657	1.0000000000	0.0000000000	0.0000000000	-146.2460228208	1.0000000000	794.1141930302	1.0000000000	0.0000000000	0.0000000000
0.1500000000	0.0000000000	1.0000000000	0.0000000000	1.0000000000	0.0000000000	0.0000000000	-132.5757647257	1.0000000000	798.3621283833	1.0000000000	0.0000000000	0.0000000000
0.1600000000	0.0000000000	1.0000000000	0.0000000000	1.0000000000	0.0000000000	0.0000000000	-117.2728254574	1.0000000000	799.3731683392	1.0000000000	0.0000000000	0.0000000000
0.1700000000	0.0000000000	1.0000000000	0.0000000000	1.0000000000	0.0000000000	0.0000000000	-102.3976122112	1.0000000000	795.2036890761	1.0000000000	0.0000000000	0.0000000000
0.1800000000	0.0000000000	1.0000000000	0.0000000000	1.0000000000	0.0000000000	0.0000000000	-87.4456254999	1.0000000000	784.1414627770	1.0000000000	0.0000000000	0.0000000000
0.1900000000	0.0000000000	1.0000000000	0.0000000000	1.0000000000	0.0000000000	0.0000000000	-71.6110018522	1.0000000000	765.1989049328	1.0000000000	0.0000000000	0.0000000000
0.2000000000	0.0000000000	1.0000000000	0.0000000000	1.0000000000	0.0000000000	0.0000000000	-57.0863894486	1.0000000000	738.8859814646	1.0000000000	0.0000000000	0.0000000000
0.2100000000	0.0000000000	1.0000000000	0.0000000000	1.0000000000	0.0000000000	0.0000000000	-44.4917305223	1.0000000000	706.8542151093	1.0000000000	0.0000000000	0.0000000000
0.2200000000	0.0000000000	1.0000000000	0.0000000000	1.0000000000	0.0000000000	0.0000000000	-32.8396250573	1.0000000000	671.1233375259	1.0000000000	0.0000000000	0.0000000000
0.2300000000	0.0000000000	1.0000000000	0.0000000000	1.0000000000	0.0000000000	0.0000000000	-22.4544651227	1.0000000000	634.1012129430	1.0000000000	0.0000000000	0.0000000000
0.2400000000	0.0000000000	1.0000000000	0.0000000000	1.0000000000	0.0000000000	0.0000000000	-14.0686903808	1.0000000000	597.9480597838	1.0000000000	0.0000000000	0.0000000000
0.2500000000	0.0000000000	1.0000000000	0.0000000000	1.0000000000	0.0000000000	0.0000000000	-8.0125948744	1.0000000000	564.1765111618	1.0000000000	0.0000000000	0.0000000000
0.2600000000	0.0000000000	1.0000000000	0.0000000000	1.0000000000	0.0000000000	0.0000000000	-3.1370884570	1.0000000000	534.2582802201	1.0000000000	0.0000000000	0.0000000000
0.2700000000	0.0000000000	1.0000000000	0.0000000000	1.0000000000	0.0000000000	0.0000000000	0.6279492879	1.0000000000	509.5621881324	1.0000000000	0.0000000000	0.0000000000
0.2800000000	0.0000000000	1.0000000000	0.0000000000	1.0000000000	0.0000000000	0.0000000000	2.3406470674	1.0000000000	490.6929909393	1.0000000000	0.0000000000	0.0000000000
0.2900000000	0.0000000000	1.0000000000	0.0000000000	1.0000000000	0.0000000000	0.0000000000	3.1218677252	1.0000000000	477.6820684434	1.0000000000	0.0000000000	0.0000000000
0.3000000000	0.0000000000	1.0000000000	0.0000000000	1.0000000000	0.0000000000	0.0000000000	3.8395909187	1.0000000000	470.4328476103	1.0000000000	0.0000000000	0.0000000000
0.3100000000	0.0000000000	1.0000000000	0.0000000000	1.0000000000	0.0000000000	0.0000000000	4.2699366678	1.0000000000	468.7088847713	1.0000000000	0.0000000000	0.0000000000
0.3200000000	0.0000000000	1.0000000000	0.0000000000	1.0000000000	0.0000000000	0.0000000000	4.6131290350	1.0000000000	472.1409668768	1.0000000000	0.0000000000	0.0000000000
0.3300000000	0.0000000000	1.0000000000	0.0000000000	1.0000000000	0.0000000000	0.0000000000	5.6516390864	1.0000000000	480.5474994336	1.0000000000	0.0000000000	0.0000000000
0.3400000000	0.0000000000	1.0000000000	0.0000000000	1.0000000000	0.0000000000	0.0000000000	8.0846634623	1.0000000000	494.0051441827	1.0000000000	0.0000000000	0.0000000000
0.3500000000	0.0000000000	1.0000000000	0.0000000000	1.0000000000	0.0000000000	0.0000000000	11.8260146204	1.0000000000	512.1853441866	1.0000000000	0.0000000000	0.0000000000
0.3600000000	0.0000000000	1.0000000000	0.0000000000	1.0000000000	0.0000000000	0.0000000000	17.0802497464	1.0000000000	534.2706560232	1.0000000000	0.0000000000	0.0000000000
0.3700000000	0.0000000000	1.0000000000	0.0000000000	1.0000000000	0.0000000000	0.0000000000	24.3494529843	1.0000000000	559.9363862341	1.0000000000	0.0000000000	0.0000000000
0.3800000000	0.0000000000	1.0000000000	0.0000000000	1.0000000000	0.0000000000	0.0000000000	33.4829470267	1.0000000000	589.3547152718	1.0000000000	0.0000000000	0.0000000000
0.3900000000	0.0000000000	1.0000000000	0.0000000000	1.0000000000	0.0000000000	0.0000000000	44.1431539026	1.0000000000	622.1944194796	1.0000000000	0.0000000000	0.0000000000
0.4000000000	0.0000000000	1.0000000000	0.0000000000	1.0000000000	0.0000000000	0.0000000000	56.2630853189	1.0000000000	657.3565657629	1.0000000000	0.0000000000	0.0000000000
0.4100000000	0.0000000000	1.0000000000	0.0000000000	1.0000000000	0.0000000000	0.0000000000	69.5385696422	1.0000000000	693.4917612405	1.0000000000	0.0000000000	0.0000000000
0.4200000000	0.0000000000	1.0000000000	0.0000000000	1.0000000000	0.0000000000	0.0000000000	82.9650049808	1.0000000000	729.3818996171	1.0000000000	0.0000000000	0.0000000000
0.4300000000	0.0000000000	1.0000000000	0.0000000000	1.0000000000	0.0000000000	0.0000000000	95.8338944927	1.0000000000	763.6604604968	1.0000000000	0.0000000000	0.0000000000
0.4400000000	0.0000000000	1.0000000000	0.0000000000	1.0000000000	0.0000000000	0.0000000000	108.0732470643	1.0000000000	794.4647856606	1.0000000000	0.0000000000	0.0000000000
0.4500000000	0.0000000000	1.0000000000	0.0000000000	1.0000000000	0.0000000000	0.0000000000	119.4588122106	1.0000000000	819.6469874426	1.0000000000	0.0000000000	0.0000000000
